<svg width="244" height="244" viewBox="0 0 244 244" fill="none" xmlns="http://www.w3.org/2000/svg">
<path d="M154.581 73.9999L152.932 74.0034L152.621 75.623L134.426 170.442L134.117 172.05L135.632 172.67C137.337 173.368 138.978 174.194 140.541 175.135L141.94 175.978L143.045 174.774L197.446 115.547L198.395 114.514L197.746 113.269C195.994 109.912 195 106.078 195 102C195 88.7084 205.558 78 218.5 78C231.442 78 242 88.7084 242 102C242 115.292 231.442 126 218.5 126C214.581 126 210.89 125.022 207.644 123.291L206.277 122.563L205.23 123.703L151.328 182.387L150.223 183.59L151.181 184.913C155.471 190.839 158 198.121 158 206C158 225.882 141.882 242 122 242C102.118 242 86 225.882 86 206C86 203.348 86.2863 200.766 86.829 198.281L87.1619 196.757L85.7647 196.063L26.6562 166.705L25.6583 166.21L24.7117 166.798C22.457 168.197 19.8209 169 17 169C8.76998 169 2 162.115 2 153.5C2 144.885 8.76998 138 17 138C25.23 138 32 144.885 32 153.5C32 154.104 31.9667 154.699 31.9019 155.284L31.748 156.673L33.0001 157.295L90.1885 185.699L91.7135 186.457L92.7045 185.072C95.0381 181.811 97.9028 178.956 101.172 176.633L102.486 175.7L101.852 174.217L62.4747 82.0821L61.8972 80.7309L60.4353 80.8781C59.6351 80.9587 58.8227 81 58 81C44.7452 81 34 70.2548 34 57C34 43.7452 44.7452 33 58 33C71.2548 33 82 43.7452 82 57C82 64.3914 78.6611 71.0011 73.402 75.4067L72.2637 76.3603L72.8473 77.7258L112.129 169.636L112.777 171.153L114.389 170.806C116.663 170.316 119.018 170.042 121.433 170.004L123.059 169.979L123.366 168.382L141.586 73.4353L141.893 71.8341L140.386 71.2105C127.221 65.7609 118 52.9319 118 38C118 18.1423 134.317 2 154.5 2C174.683 2 191 18.1423 191 38C191 57.8311 174.727 73.9568 154.581 73.9999Z" fill="black" stroke="black" stroke-width="4"/>
</svg>
